<svg xmlns="http://www.w3.org/2000/svg" viewBox="0 0 768 768" fill="oklch(0.55 0.18 250)">
  <g>
    <path d="M634.66,226.31v-52.77h-211.08v52.77h79.16v131.93h-237.47v-131.93h79.16v-52.77h-211.08v52.77h79.16v316.63h-78.63v52.77h207.39v-52.77h-75.99v-131.93h237.47l-109.43,72.95c-5.81,3.87-9.3,10.4-9.3,17.38v173.52l113.47-75.65c3.43-2.29,7.46-3.51,11.59-3.51h122.44v-52.77h-75.99V226.31h79.16ZM498.08,586.25l-103.64,69.09v-154.01c0-3.49,1.75-6.75,4.65-8.69l103.64-69.09v154.01c0,3.49-1.75,6.75-4.65,8.69Z"/>
    <path d="M418.26,569.31c0,4.86,5.85,8.79,5.85,8.79,0,0,5.85-3.94,5.85-8.79s-5.85-8.79-5.85-8.79c0,0-5.85,3.94-5.85,8.79Z"/>
  </g>
  <path d="M738.77,384c0,195.93-158.84,354.77-354.77,354.77S29.23,579.93,29.23,384,188.07,29.23,384,29.23s354.77,158.84,354.77,354.77ZM384,0C171.92,0,0,171.92,0,384s171.92,384,384,384,384-171.92,384-384S596.08,0,384,0Z"/>
</svg>